<?xml version="1.0" standalone="no"?>
<!DOCTYPE svg PUBLIC "-//W3C//DTD SVG 20010904//EN"
 "http://www.w3.org/TR/2001/REC-SVG-20010904/DTD/svg10.dtd">
<svg version="1.0" xmlns="http://www.w3.org/2000/svg"
 width="600.000000pt" height="480.000000pt" viewBox="0 0 600.000000 480.000000"
 preserveAspectRatio="xMidYMid meet">
<g transform="translate(0.000000,480.000000) scale(0.100000,-0.100000)"
fill="#000000" stroke="none">
<path d="M2251 4683 c-18 -52 -31 -96 -29 -98 10 -10 141 -48 275 -79 240 -57
347 -69 578 -63 173 4 219 9 345 36 119 25 388 96 396 104 1 1 -11 45 -28 97
l-31 96 -148 -43 c-250 -72 -323 -84 -532 -90 -199 -6 -301 3 -457 38 -101 23
-299 78 -320 89 -12 7 -22 -11 -49 -87z m193 10 c23 -3 46 -9 52 -14 6 -5 20
-6 29 -2 13 5 16 3 10 -6 -5 -10 -2 -11 13 -7 11 4 23 2 27 -3 3 -6 19 -9 35
-7 19 2 27 -1 23 -7 -4 -6 0 -8 10 -4 9 3 19 2 21 -2 3 -5 29 -11 57 -15 28
-4 74 -10 102 -14 158 -21 522 5 616 44 18 8 37 12 41 9 5 -3 11 -1 15 5 3 5
19 10 34 10 15 0 65 11 111 25 82 25 119 31 107 19 -3 -4 0 -22 8 -42 32 -75
28 -85 -34 -97 -9 -2 -16 -4 -16 -5 0 -1 -11 -4 -25 -6 -14 -3 -56 -14 -95
-26 -38 -11 -80 -22 -92 -23 -11 -2 -31 -6 -44 -10 -56 -18 -298 -43 -430 -44
-103 -1 -184 4 -278 19 -73 11 -138 17 -144 13 -6 -4 -7 -1 -2 6 5 9 1 12 -11
10 -23 -3 -44 2 -201 48 -68 20 -123 40 -123 46 0 5 9 36 21 67 l21 57 50 -19
c28 -10 69 -21 92 -25z"/>
<path d="M2725 3510 l0 -770 103 0 102 0 0 770 0 770 -102 0 -103 0 0 -770z
m163 -2 l2 -738 -54 0 c-30 0 -60 2 -68 5 -11 4 -13 134 -10 733 1 400 4 732
6 737 2 6 27 8 62 5 l59 -5 3 -737z"/>
<path d="M3110 3510 l0 -770 100 0 100 0 0 770 0 770 -100 0 -100 0 0 -770z
m170 2 l5 -732 -72 0 -73 0 0 735 0 736 68 -3 67 -3 5 -733z"/>
<path d="M2495 2545 c-17 -27 -95 -176 -95 -181 0 -2 278 -4 619 -4 l618 0
-51 101 -51 100 -514 2 c-504 2 -514 2 -526 -18z m546 -15 l480 0 15 -32 c8
-18 21 -42 29 -53 31 -44 29 -44 -556 -47 l-556 -3 15 35 c37 90 56 114 80
105 8 -3 229 -5 493 -5z"/>
<path d="M1494 2087 c-60 -109 -90 -164 -146 -267 -51 -94 -255 -468 -398
-730 -67 -124 -127 -231 -132 -237 -8 -10 432 -13 2196 -13 l2207 0 -17 33
c-9 17 -82 151 -161 297 -80 146 -177 324 -215 395 -39 72 -90 164 -113 205
-23 41 -84 153 -135 248 l-94 172 -1468 0 -1467 -1 -57 -102z m3016 -4 c19
-37 45 -79 57 -94 12 -14 20 -29 17 -32 -3 -3 6 -23 20 -44 14 -20 26 -42 26
-47 0 -5 6 -17 14 -25 8 -9 38 -64 68 -123 30 -60 58 -106 61 -103 4 3 5 2 2
-1 -5 -8 34 -87 49 -96 6 -4 8 -8 4 -8 -4 0 8 -27 27 -59 19 -33 35 -64 35
-71 0 -6 5 -8 12 -4 6 4 8 3 5 -3 -4 -6 4 -27 18 -47 13 -20 22 -36 20 -36 -2
0 10 -24 27 -53 17 -28 48 -85 68 -125 20 -40 40 -69 45 -65 4 5 5 3 2 -4 -4
-6 -1 -17 6 -25 7 -7 15 -17 16 -23 2 -5 14 -28 26 -50 13 -22 25 -47 27 -55
3 -13 -243 -16 -2148 -20 -1717 -4 -2151 -2 -2151 7 0 7 2 11 5 9 2 -3 23 32
46 77 23 45 46 89 51 97 5 8 10 21 12 29 1 8 5 17 10 20 4 3 18 24 30 46 50
95 66 121 81 138 8 9 12 20 9 23 -3 4 5 21 18 38 28 38 105 185 105 202 0 7 4
14 9 16 4 2 30 44 56 93 26 50 51 95 55 100 4 6 25 44 47 85 51 96 83 152 94
166 5 6 6 14 2 17 -3 4 -2 7 3 7 6 0 16 15 22 34 7 19 21 45 31 58 l19 23
1453 -3 1454 -2 35 -67z"/>
<path d="M2053 1996 c-7 -9 -12 -48 -11 -107 0 -89 1 -94 25 -106 20 -10 145
-13 578 -13 490 0 555 2 569 16 12 12 16 36 16 100 0 138 69 124 -593 124
-469 -1 -574 -3 -584 -14z m1147 -101 l0 -95 -565 0 -565 0 0 90 0 90 563 3
c309 1 563 3 565 5 1 1 2 -41 2 -93z"/>
<path d="M3388 1993 c-18 -22 -17 -163 2 -199 l13 -24 282 1 282 1 17 29 c13
21 16 48 15 101 -4 115 16 108 -314 108 -256 0 -283 -2 -297 -17z m582 -104
l0 -89 -285 0 -285 0 0 90 0 90 278 2 c152 2 280 2 285 0 4 -2 7 -43 7 -93z"/>
<path d="M2057 1612 c-23 -25 -24 -168 -1 -200 15 -21 20 -22 204 -22 222 0
210 -7 210 123 0 120 6 117 -217 117 -162 0 -182 -2 -196 -18z m383 -102 l0
-90 -185 0 -185 0 0 90 0 90 185 0 185 0 0 -90z"/>
<path d="M2632 1618 c-16 -16 -16 -200 0 -216 9 -9 172 -12 671 -12 617 0 661
1 673 18 18 22 19 193 2 210 -17 17 -1329 17 -1346 0z m1338 -108 l0 -90 -665
0 -665 0 0 90 0 90 665 0 665 0 0 -90z"/>
<path d="M2050 1230 c-16 -29 -11 -170 6 -197 l14 -23 380 0 c441 0 400 -13
400 124 0 64 -4 88 -16 100 -13 14 -63 16 -394 16 -371 0 -380 0 -390 -20z
m775 -100 l0 -90 -377 0 -378 0 0 90 0 90 378 0 377 0 0 -90z"/>
<path d="M354 478 c-34 -101 -63 -189 -65 -195 -3 -10 571 -13 2729 -15 2114
-2 2732 0 2730 9 -2 7 -30 95 -63 197 l-60 185 -2605 1 -2605 0 -61 -182z
m5249 137 c12 -8 18 -15 14 -15 -5 0 -5 -6 0 -12 4 -7 9 -24 11 -38 2 -13 8
-30 14 -37 5 -7 7 -16 4 -22 -3 -5 -3 -11 2 -13 10 -4 61 -161 55 -171 -7 -11
-5373 -9 -5373 3 0 6 13 48 29 94 16 46 26 88 23 92 -4 4 -1 4 6 0 7 -5 12 -1
12 10 0 16 12 61 30 109 7 20 15 20 2580 17 2264 -2 2574 -4 2593 -17z"/>
</g>
</svg>
